<svg xmlns="http://www.w3.org/2000/svg" viewBox="0 0 400 260" width="400" height="260">
  <defs>
    <radialGradient id="paper" cx="50%" cy="35%" r="80%">
      <stop offset="0%" stop-color="#f5ecd4"/>
      <stop offset="100%" stop-color="#c9a9a0"/>
    </radialGradient>
  </defs>
  <rect width="400" height="260" fill="url(#paper)"/>
  <path d="M0,138 L35,101 L70,154 L105,117 L140,170 L175,133 L210,96 L245,149 L280,112 L315,165 L350,128 L385,91 L420,144 L400,107 L400,260 L0,260 Z" fill="#8a5048" opacity="0.28"/>
  <path d="M0,159 L39,122 L78,85 L117,138 L156,101 L195,154 L234,117 L273,170 L312,133 L351,96 L390,149 L429,112 L400,165 L400,260 L0,260 Z" fill="#8a5048" opacity="0.18" transform="translate(0,40)"/>
  <text x="200" y="120" text-anchor="middle" font-family="serif" font-size="34" fill="#8a5048" opacity="0.55">芙蓉锦鸡图</text>
  <rect x="10" y="10" width="380" height="240" fill="none" stroke="#8a5048" stroke-opacity="0.35" stroke-width="2"/>
</svg>